<?xml version="1.0" encoding="iso-8859-1"?>
<!-- Generator: Adobe Illustrator 19.0.0, SVG Export Plug-In . SVG Version: 6.00 Build 0)  -->
<svg version="1.1" id="Layer_1" xmlns="http://www.w3.org/2000/svg" xmlns:xlink="http://www.w3.org/1999/xlink" x="0px" y="0px"
	 viewBox="0 0 503.467 503.467" style="enable-background:new 0 0 503.467 503.467;" xml:space="preserve">
<g transform="translate(5 5)">
	<path style="fill:#F2EDDA;" d="M417.4,33.4h8.533c17.067,0,34.133,17.067,34.133,34.133v358.4H33.4v-358.4
		C33.4,50.467,50.467,33.4,67.533,33.4h25.6H417.4z M33.4,460.067h426.667v-34.133H33.4V460.067z M33.4,460.067h426.667
		c0,17.067-17.067,34.133-34.133,34.133h-358.4C50.467,494.2,33.4,477.133,33.4,460.067z"/>
	<path style="fill:#AAB1BA;" d="M118.733,50.467c9.387,0,17.067,7.68,17.067,17.067S128.12,84.6,118.733,84.6
		s-17.067-7.68-17.067-17.067S109.347,50.467,118.733,50.467z M374.733,50.467c9.387,0,17.067,7.68,17.067,17.067
		S384.12,84.6,374.733,84.6c-9.387,0-17.067-7.68-17.067-17.067S365.347,50.467,374.733,50.467z M204.067,50.467
		c9.387,0,17.067,7.68,17.067,17.067S213.453,84.6,204.067,84.6S187,76.92,187,67.533S194.68,50.467,204.067,50.467z M289.4,50.467
		c9.387,0,17.067,7.68,17.067,17.067S298.787,84.6,289.4,84.6s-17.067-7.68-17.067-17.067S280.013,50.467,289.4,50.467z"/>
	<path style="fill:#FF7474;" d="M169.933,187v-4.267c9.387-8.533,21.333-12.8,34.133-12.8c17.92,0,33.28,9.387,42.667,23.04
		c9.387-13.653,24.747-23.04,42.667-23.04c28.16,0,51.2,23.04,51.2,51.2s-34.133,59.733-34.133,59.733L246.733,340.6L187,280.867
		c0,0-34.133-31.573-34.133-59.733c0-12.8,5.12-24.747,12.8-34.133H169.933z"/>
</g>
<path style="fill:#51565F;" d="M430.933,503.467h-358.4c-19.627,0-38.4-18.773-38.4-38.4V72.533c0-19.627,18.773-38.4,38.4-38.4
	H89.6c2.56,0,4.267,1.707,4.267,4.267s-1.707,4.267-4.267,4.267H72.533c-14.507,0-29.867,15.36-29.867,29.867v354.133H460.8V72.533
	c0-14.507-15.36-29.867-29.867-29.867h-17.067c-2.56,0-4.267-1.707-4.267-4.267s1.707-4.267,4.267-4.267h17.067
	c19.627,0,38.4,18.773,38.4,38.4v392.533C469.333,484.693,450.56,503.467,430.933,503.467z M42.667,469.333
	c2.56,13.653,16.213,25.6,29.867,25.6h358.4c13.653,0,27.307-11.947,29.867-25.6H42.667z M42.667,460.8H460.8v-25.6H42.667V460.8z
	 M251.733,349.867c-0.853,0-2.56,0-3.413-0.853l-59.733-59.733C186.88,288.427,153.6,256,153.6,226.133
	c0-2.56,1.707-4.267,4.267-4.267c2.56,0,4.267,1.707,4.267,4.267c0,26.453,32.427,56.32,32.427,56.32l57.173,57.173l56.32-56.32
	c0.853,0,33.28-30.72,33.28-56.32S320,180.053,294.4,180.053c-15.36,0-30.72,7.68-39.253,21.333c-1.707,2.56-5.12,2.56-6.827,0
	c-8.533-12.8-23.04-21.333-39.253-21.333c-2.56,0-4.267-1.707-4.267-4.267s1.707-4.267,4.267-4.267
	c16.213,0,32.427,7.68,42.667,19.627c10.24-12.8,26.453-19.627,42.667-19.627c30.72,0,55.467,24.747,55.467,55.467
	c0,29.867-34.133,61.44-35.84,63.147l-17.92,17.92l17.92,17.92c0.853,0.853,0.853,1.707,0.853,3.413c0,1.706,0,2.56-0.853,3.413
	c-1.707,1.707-4.267,1.707-5.973,0l-17.92-17.92l-34.987,34.987C254.293,349.867,252.587,349.867,251.733,349.867z M209.067,230.4
	c-0.853,0-2.56,0-3.413-0.853l-33.28-33.28h-32.427c-2.56,0-4.267-1.707-4.267-4.267c0-2.56,1.707-4.267,4.267-4.267h29.867v-29.867
	c0-2.56,1.707-4.267,4.267-4.267s4.267,1.707,4.267,4.267v32.427l33.28,33.28c1.707,1.707,1.707,4.267,0,5.973
	C211.627,230.4,209.92,230.4,209.067,230.4z M379.733,93.867c-11.947,0-21.333-9.387-21.333-21.333
	c0-10.24,7.68-18.773,17.067-20.48V4.267c0-2.56,1.707-4.267,4.267-4.267C382.293,0,384,1.707,384,4.267v47.787
	c9.387,1.707,17.067,10.24,17.067,20.48C401.067,84.48,391.68,93.867,379.733,93.867z M379.733,59.733
	c-6.827,0-12.8,5.973-12.8,12.8c0,6.827,5.973,12.8,12.8,12.8c6.827,0,12.8-5.973,12.8-12.8
	C392.533,65.707,386.56,59.733,379.733,59.733z M294.4,93.867c-11.947,0-21.333-9.387-21.333-21.333
	c0-10.24,7.68-18.773,17.067-20.48V4.267c0-2.56,1.707-4.267,4.267-4.267s4.267,1.707,4.267,4.267v47.787
	c9.387,1.707,17.067,10.24,17.067,20.48C315.733,84.48,306.347,93.867,294.4,93.867z M294.4,59.733c-6.827,0-12.8,5.973-12.8,12.8
	c0,6.827,5.973,12.8,12.8,12.8s12.8-5.973,12.8-12.8C307.2,65.707,301.227,59.733,294.4,59.733z M209.067,93.867
	c-11.947,0-21.333-9.387-21.333-21.333c0-10.24,7.68-18.773,17.067-20.48V4.267c0-2.56,1.707-4.267,4.267-4.267
	s4.267,1.707,4.267,4.267v47.787c9.387,1.707,17.067,10.24,17.067,20.48C230.4,84.48,221.013,93.867,209.067,93.867z
	 M209.067,59.733c-6.827,0-12.8,5.973-12.8,12.8c0,6.827,5.973,12.8,12.8,12.8s12.8-5.973,12.8-12.8
	C221.867,65.707,215.893,59.733,209.067,59.733z M123.733,93.867c-11.947,0-21.333-9.387-21.333-21.333
	c0-10.24,7.68-18.773,17.067-20.48V4.267c0-2.56,1.707-4.267,4.267-4.267C126.293,0,128,1.707,128,4.267v47.787
	c9.387,1.707,17.067,10.24,17.067,20.48C145.067,84.48,135.68,93.867,123.733,93.867z M123.733,59.733
	c-6.827,0-12.8,5.973-12.8,12.8c0,6.827,5.973,12.8,12.8,12.8c6.827,0,12.8-5.973,12.8-12.8
	C136.533,65.707,130.56,59.733,123.733,59.733z M345.6,42.667h-17.067c-2.56,0-4.267-1.707-4.267-4.267s1.707-4.267,4.267-4.267
	H345.6c2.56,0,4.267,1.707,4.267,4.267S348.16,42.667,345.6,42.667z M260.267,42.667H243.2c-2.56,0-4.267-1.707-4.267-4.267
	s1.707-4.267,4.267-4.267h17.067c2.56,0,4.267,1.707,4.267,4.267S262.827,42.667,260.267,42.667z M174.933,42.667h-17.067
	c-2.56,0-4.267-1.707-4.267-4.267s1.707-4.267,4.267-4.267h17.067c2.56,0,4.267,1.707,4.267,4.267S177.493,42.667,174.933,42.667z"
	/>
<g>
</g>
<g>
</g>
<g>
</g>
<g>
</g>
<g>
</g>
<g>
</g>
<g>
</g>
<g>
</g>
<g>
</g>
<g>
</g>
<g>
</g>
<g>
</g>
<g>
</g>
<g>
</g>
<g>
</g>
</svg>
