<?xml version="1.0" encoding="iso-8859-1"?>
<!-- Generator: Adobe Illustrator 19.0.0, SVG Export Plug-In . SVG Version: 6.00 Build 0)  -->
<svg version="1.1" id="Layer_1" xmlns="http://www.w3.org/2000/svg" xmlns:xlink="http://www.w3.org/1999/xlink" x="0px" y="0px"
	 viewBox="0 0 512 512" style="enable-background:new 0 0 512 512;" xml:space="preserve">
<g>
	<g>
		<path d="M378.015,0h-65.341C312.642,0,14.155,0,14.155,0c-4.513,0-8.17,3.658-8.17,8.17v495.66c0,4.512,3.657,8.17,8.17,8.17
			h363.86c22.526,0,40.851-18.325,40.851-40.851V40.851C418.866,18.326,400.54,0,378.015,0z M337.163,471.149
			c0,13.516-10.996,24.511-24.511,24.511H22.325V16.34h290.349c13.505,0.011,24.49,11.001,24.49,24.511V471.149z M402.525,471.149
			c0,13.516-10.996,24.511-24.511,24.511h-32.704c5.141-6.832,8.193-15.321,8.193-24.511V40.851c0-9.189-3.051-17.678-8.192-24.511
			h32.703c13.515,0,24.511,10.995,24.511,24.511V471.149z"/>
	</g>
</g>
<g>
	<g>
		<path d="M378.015,32.681c-4.513,0-8.17,3.658-8.17,8.17v65.362c0,4.512,3.657,8.17,8.17,8.17s8.17-3.658,8.17-8.17V40.851
			C386.185,36.339,382.527,32.681,378.015,32.681z"/>
	</g>
</g>
<g>
	<g>
		<path d="M378.015,130.723c-4.513,0-8.17,3.658-8.17,8.17v332.255c0,4.512,3.657,8.17,8.17,8.17s8.17-3.658,8.17-8.17V138.894
			C386.185,134.381,382.527,130.723,378.015,130.723z"/>
	</g>
</g>
<g>
	<g>
		<path d="M57.729,32.681c-4.513,0-8.17,3.658-8.17,8.17v430.298c0,4.512,3.657,8.17,8.17,8.17c4.513,0,8.17-3.658,8.17-8.17V40.851
			C65.899,36.339,62.242,32.681,57.729,32.681z"/>
	</g>
</g>
<g>
	<g>
		<path d="M476.057,0C459.539,0,446.1,13.438,446.1,29.957v32.68c0,0.003,0.001,375.831,0.001,375.831
			c0,0.403,0.039,0.796,0.096,1.184c0.011,0.073,0.021,0.147,0.034,0.22c0.068,0.391,0.16,0.772,0.281,1.142
			c0.01,0.037,21.796,65.399,21.796,65.399c1.112,3.337,4.234,5.586,7.751,5.586s6.639-2.251,7.751-5.586l21.787-65.362
			c0.131-0.407,0.222-0.789,0.29-1.18c0.013-0.073,0.023-0.146,0.034-0.22c0.057-0.388,0.096-0.781,0.096-1.184V29.956
			C506.015,13.438,492.575,0,476.057,0z M476.057,477.992l-10.451-31.354h20.903L476.057,477.992z M489.674,430.298h-27.233
			L462.44,70.809h27.234V430.298z M489.674,54.468H462.44V29.957c0-7.509,6.108-13.617,13.617-13.617s13.617,6.108,13.617,13.617
			V54.468z"/>
	</g>
</g>
<g>
	<g>
		<path d="M297.445,376.849l-29.954-32.681c-1.548-1.688-3.733-2.65-6.023-2.65c-2.29,0-4.475,0.961-6.023,2.65l-23.93,26.109
			l-23.93-26.109c-1.548-1.688-3.733-2.65-6.022-2.65c-2.291,0-4.475,0.961-6.023,2.648l-23.943,26.112l-23.931-26.111
			c-1.548-1.688-3.733-2.65-6.022-2.65c-2.291,0-4.475,0.961-6.023,2.648l-29.966,32.681c-3.049,3.326-2.826,8.494,0.501,11.544
			c1.568,1.438,3.546,2.148,5.519,2.148c2.209,0,4.413-0.891,6.024-2.648l23.943-26.112l23.931,26.111
			c1.548,1.688,3.733,2.65,6.022,2.65c2.291,0,4.475-0.961,6.023-2.648l23.943-26.112l23.931,26.111
			c1.548,1.688,3.733,2.65,6.023,2.65s4.475-0.961,6.023-2.65l23.93-26.109l23.93,26.109c3.05,3.328,8.218,3.552,11.544,0.502
			C300.269,385.344,300.494,380.175,297.445,376.849z"/>
	</g>
</g>
<g>
	<g>
		<path d="M243.439,121.47c-16.194,0-31.399,7.012-41.925,18.86c-10.526-11.848-25.731-18.86-41.925-18.86
			c-30.942,0-56.117,25.174-56.117,56.117c0,71.197,90.298,121.086,94.142,123.175c1.216,0.661,2.559,0.991,3.901,0.991
			c1.342,0,2.685-0.33,3.901-0.991c3.843-2.088,94.142-51.978,94.142-123.175C299.556,146.644,274.382,121.47,243.439,121.47z
			 M201.512,284.133c-16.767-10.085-81.698-52.638-81.698-106.545c-0.002-21.933,17.842-39.777,39.775-39.777
			c14.432,0,27.759,7.867,34.78,20.532c1.44,2.597,4.175,4.209,7.146,4.209s5.705-1.611,7.146-4.209
			c7.02-12.664,20.348-20.532,34.78-20.532c21.933,0,39.777,17.844,39.777,39.777C283.218,231.395,218.268,274.032,201.512,284.133z
			"/>
	</g>
</g>
<g>
</g>
<g>
</g>
<g>
</g>
<g>
</g>
<g>
</g>
<g>
</g>
<g>
</g>
<g>
</g>
<g>
</g>
<g>
</g>
<g>
</g>
<g>
</g>
<g>
</g>
<g>
</g>
<g>
</g>
</svg>
